<svg width="26" height="22" viewBox="0 0 26 22" fill="none" xmlns="http://www.w3.org/2000/svg">
<path d="M15.2836 7.66563C15.0665 7.66563 14.8899 7.48935 14.8899 7.27188V6.60273C14.8899 6.38554 15.0662 6.20898 15.2836 6.20898C15.5008 6.20898 15.6774 6.38526 15.6774 6.60273V7.27188C15.6774 7.48935 15.5008 7.66563 15.2836 7.66563Z" fill="#103E13"/>
<path d="M13.6281 7.66563C13.4109 7.66563 13.2344 7.48935 13.2344 7.27188V6.60273C13.2344 6.38554 13.4107 6.20898 13.6281 6.20898C13.8453 6.20898 14.0219 6.38526 14.0219 6.60273V7.27188C14.0216 7.48935 13.8456 7.66563 13.6281 7.66563Z" fill="#103E13"/>
<path d="M11.9729 7.66563C11.7557 7.66563 11.5791 7.48935 11.5791 7.27188V6.60273C11.5791 6.38554 11.7554 6.20898 11.9729 6.20898C12.19 6.20898 12.3666 6.38526 12.3666 6.60273V7.27188C12.3666 7.48935 12.1903 7.66563 11.9729 7.66563Z" fill="#103E13"/>
<path d="M15.2836 10.402C15.0665 10.402 14.8899 10.2258 14.8899 10.0083V9.33943C14.8899 9.12224 15.0662 8.94568 15.2836 8.94568C15.5008 8.94568 15.6774 9.12196 15.6774 9.33943V10.0083C15.6774 10.2258 15.5008 10.402 15.2836 10.402Z" fill="#103E13"/>
<path d="M13.6281 10.402C13.4109 10.402 13.2344 10.2258 13.2344 10.0083V9.33943C13.2344 9.12224 13.4107 8.94568 13.6281 8.94568C13.8453 8.94568 14.0219 9.12196 14.0219 9.33943V10.0083C14.0216 10.2258 13.8456 10.402 13.6281 10.402Z" fill="#103E13"/>
<path d="M11.9729 10.402C11.7557 10.402 11.5791 10.2258 11.5791 10.0083V9.33943C11.5791 9.12224 11.7554 8.94568 11.9729 8.94568C12.19 8.94568 12.3666 9.12196 12.3666 9.33943V10.0083C12.3666 10.2258 12.1903 10.402 11.9729 10.402Z" fill="#103E13"/>
<path d="M15.2836 13.1384C15.0665 13.1384 14.8899 12.9621 14.8899 12.7447V12.0755C14.8899 11.8583 15.0662 11.6818 15.2836 11.6818C15.5008 11.6818 15.6774 11.858 15.6774 12.0755V12.7447C15.6774 12.9621 15.5008 13.1384 15.2836 13.1384Z" fill="#103E13"/>
<path d="M13.6281 13.1384C13.4109 13.1384 13.2344 12.9621 13.2344 12.7447V12.0755C13.2344 11.8583 13.4107 11.6818 13.6281 11.6818C13.8453 11.6818 14.0219 11.858 14.0219 12.0755V12.7447C14.0216 12.9621 13.8456 13.1384 13.6281 13.1384Z" fill="#103E13"/>
<path d="M11.9729 13.1384C11.7557 13.1384 11.5791 12.9621 11.5791 12.7447V12.0755C11.5791 11.8583 11.7554 11.6818 11.9729 11.6818C12.19 11.6818 12.3666 11.858 12.3666 12.0755V12.7447C12.3666 12.9621 12.1903 13.1384 11.9729 13.1384Z" fill="#103E13"/>
<path d="M15.2836 15.8742C15.0665 15.8742 14.8899 15.698 14.8899 15.4805V14.8114C14.8899 14.5942 15.0662 14.4176 15.2836 14.4176C15.5008 14.4176 15.6774 14.5939 15.6774 14.8114V15.4805C15.6774 15.698 15.5008 15.8742 15.2836 15.8742Z" fill="#103E13"/>
<path d="M13.6281 15.8742C13.4109 15.8742 13.2344 15.698 13.2344 15.4805V14.8114C13.2344 14.5942 13.4107 14.4176 13.6281 14.4176C13.8453 14.4176 14.0219 14.5939 14.0219 14.8114V15.4805C14.0216 15.698 13.8456 15.8742 13.6281 15.8742Z" fill="#103E13"/>
<path d="M11.9729 15.8742C11.7557 15.8742 11.5791 15.698 11.5791 15.4805V14.8114C11.5791 14.5942 11.7554 14.4176 11.9729 14.4176C12.19 14.4176 12.3666 14.5939 12.3666 14.8114V15.4805C12.3666 15.698 12.1903 15.8742 11.9729 15.8742Z" fill="#103E13"/>
<path d="M15.2836 18.6107C15.0665 18.6107 14.8899 18.4344 14.8899 18.2169V17.548C14.8899 17.3309 15.0662 17.1543 15.2836 17.1543C15.5008 17.1543 15.6774 17.3306 15.6774 17.548V18.2169C15.6774 18.4341 15.5008 18.6107 15.2836 18.6107Z" fill="#103E13"/>
<path d="M13.6281 18.6107C13.4109 18.6107 13.2344 18.4344 13.2344 18.2169V17.548C13.2344 17.3309 13.4107 17.1543 13.6281 17.1543C13.8453 17.1543 14.0219 17.3306 14.0219 17.548V18.2169C14.0216 18.4341 13.8456 18.6107 13.6281 18.6107Z" fill="#103E13"/>
<path d="M11.9729 18.6107C11.7557 18.6107 11.5791 18.4344 11.5791 18.2169L11.5794 17.548C11.5794 17.3309 11.7557 17.1543 11.9731 17.1543C12.1903 17.1543 12.3669 17.3306 12.3669 17.548V18.2169C12.3666 18.4341 12.1903 18.6107 11.9729 18.6107Z" fill="#103E13"/>
<path d="M0.724696 21.3339C0.724696 21.551 0.900975 21.7276 1.11844 21.7276H25.0965C25.3137 21.7276 25.4902 21.5513 25.4902 21.3339C25.4902 21.1167 25.3139 20.9401 25.0965 20.9401H24.3686V9.63504C24.3686 9.41785 24.1923 9.24129 23.9749 9.24129L17.5462 9.24156V1.0912C17.5462 0.953362 17.4742 0.825958 17.3567 0.754562C17.2394 0.682899 17.0928 0.678506 16.9709 0.741931L9.66194 4.54733C9.53151 4.61515 9.45024 4.7497 9.45024 4.8966V12.0158H2.37675C2.15956 12.0158 1.983 12.1921 1.983 12.4095V20.9402H1.11757C0.900377 20.9399 0.724365 21.1162 0.724365 21.3336L0.724696 21.3339ZM17.5463 15.205H23.5815V20.9404L17.5463 20.9402V15.205ZM17.5463 12.4688H23.5815V14.4178L17.5463 14.4175V12.4688ZM17.5463 10.0286H23.5815V11.6819H17.5463V10.0286ZM10.2373 5.13568L16.7585 1.74023V20.9398H10.2373V5.13568ZM4.71693 17.7953C4.71693 16.9781 5.36439 16.3131 6.16038 16.3131C6.95638 16.3131 7.60411 16.9779 7.60411 17.7953V20.9403H4.71693V17.7953ZM2.77048 12.8031H9.45012V20.9402H8.39159V17.7951C8.39159 16.5439 7.39105 15.5258 6.16038 15.5258C4.93027 15.5258 3.92973 16.5436 3.92973 17.7951V20.9402H2.77048V12.8031Z" fill="#103E13"/>
</svg>
