<svg width="24" height="22" viewBox="0 0 24 22" fill="none" xmlns="http://www.w3.org/2000/svg">
<path d="M15.1288 10.891C14.9612 10.891 14.8055 10.8449 14.6673 10.7708V10.7728C14.6673 11.0365 14.5648 11.2841 14.3788 11.4696C14.1929 11.6556 13.9454 11.7581 13.682 11.7581C13.512 11.7581 13.3544 11.7108 13.2146 11.6347C13.2005 11.876 13.1041 12.1015 12.9321 12.2737C12.7461 12.4596 12.4986 12.5621 12.2351 12.5621C11.7114 12.5621 11.2862 12.1505 11.2556 11.6346C11.0935 11.7222 10.9103 11.7681 10.7214 11.7559C10.2063 11.7222 9.80289 11.2771 9.80289 10.7424V6.31082L9.29827 7.18505C9.10607 7.51943 8.74629 7.72704 8.35892 7.72704C8.17016 7.72704 7.9837 7.67752 7.81857 7.58289C7.61292 7.46367 7.46582 7.27229 7.40465 7.04334C7.34315 6.81424 7.37496 6.57465 7.49386 6.36932C7.49402 6.36932 9.14493 3.51042 9.24564 3.33481C9.25762 3.3084 9.29173 3.23182 9.32076 3.16655C9.34847 3.10423 9.37225 3.04028 9.39504 2.97599C9.89291 1.57043 11.1257 0.69733 12.6124 0.69733C14.5431 0.69733 16.1138 2.40054 16.1138 4.49411L16.114 9.9056C16.114 10.169 16.0116 10.4164 15.8258 10.6026C15.6399 10.7886 15.3924 10.891 15.1287 10.891L15.1288 10.891ZM12.6124 1.22087C11.3349 1.22087 10.3167 1.94246 9.88852 3.15108C9.86113 3.22783 9.8326 3.30458 9.7993 3.37936C9.70271 3.596 9.70271 3.596 9.67549 3.62715L9.67188 3.62404C9.53708 3.87839 9.13661 4.57191 7.94718 6.63134C7.8983 6.71579 7.88535 6.81386 7.91028 6.90766C7.93553 7.00147 7.99605 7.08051 8.07985 7.12889C8.33994 7.27829 8.69614 7.18186 8.84438 6.92357L9.83801 5.20327C9.89738 5.10078 10.0174 5.05043 10.1325 5.08159C10.247 5.11226 10.3265 5.21606 10.3265 5.33447V10.7426C10.3265 10.9978 10.5191 11.218 10.7557 11.2336C10.8922 11.2408 11.0194 11.195 11.115 11.0996C11.202 11.0127 11.2498 10.8969 11.2498 10.7731V7.2361C11.2498 7.09146 11.3671 6.9742 11.5117 6.9742C11.6564 6.9742 11.7736 7.09129 11.7736 7.2361L11.7735 11.577C11.7735 11.8316 11.9806 12.0387 12.2351 12.0387C12.3588 12.0387 12.4749 11.9908 12.5619 11.9039C12.6489 11.8168 12.6967 11.7007 12.6967 11.577V7.23609C12.6967 7.09145 12.8138 6.9742 12.9586 6.9742C13.1033 6.9742 13.2205 7.09129 13.2205 7.23609L13.2204 10.7324V10.7731C13.2204 11.0274 13.4275 11.2345 13.6822 11.2345C13.8057 11.2345 13.9214 11.1865 14.009 11.0992C14.0959 11.0125 14.1438 10.8967 14.1438 10.7729V7.23591C14.1438 7.09127 14.2609 6.97402 14.4057 6.97402C14.5504 6.97402 14.6676 7.09111 14.6676 7.23591L14.6673 9.90572C14.6673 10.1604 14.8744 10.3675 15.1287 10.3675C15.2526 10.3675 15.3683 10.3195 15.4553 10.2327C15.5425 10.1455 15.5902 10.0294 15.5902 9.90572L15.5904 4.49423C15.5904 2.6895 14.2545 1.22093 12.6124 1.22093L12.6124 1.22087Z" fill="#103E13"/>
<path d="M4.83908 14.6522L8.63942 12.3724C9.09761 12.0972 9.68717 12.2141 9.98104 12.6387C10.0883 12.7933 10.1431 12.9736 10.1516 13.1571C10.2933 13.0831 10.4474 13.0429 10.6044 13.0429C10.6847 13.0429 10.7654 13.0529 10.8451 13.0728C11.1004 13.1366 11.3156 13.2961 11.4509 13.5218C11.5864 13.7478 11.6259 14.0126 11.5621 14.2676C11.5032 14.5036 11.3597 14.7022 11.1602 14.8385C11.2997 14.9208 11.4201 15.0332 11.5057 15.1762C11.6411 15.4021 11.6807 15.6669 11.617 15.9222C11.5532 16.1772 11.3937 16.3923 11.1677 16.528L11.1664 16.5288C11.3035 16.611 11.4217 16.7222 11.5063 16.863C11.642 17.089 11.6815 17.3538 11.6177 17.6092C11.5537 17.8643 11.3942 18.0795 11.1685 18.215L6.52825 20.9988C5.6622 21.5181 4.66102 21.6974 3.70953 21.5031C2.74953 21.3069 1.95447 20.7551 1.47105 19.9492C0.70601 18.6742 0.820663 17.1677 1.76968 16.018C1.81314 15.9655 1.85594 15.912 1.89481 15.8566C1.93597 15.7981 1.98402 15.7292 2.00042 15.7056C2.09865 15.5301 3.70153 12.6422 3.70136 12.6425C3.86323 12.3504 4.16661 12.1851 4.4795 12.1853C4.62546 12.1853 4.77354 12.2212 4.91015 12.297C5.07513 12.3891 5.21371 12.5234 5.31063 12.6853C5.50988 13.0174 5.51693 13.433 5.32932 13.7693L4.83908 14.6522ZM4.86187 12.9545C4.81104 12.8697 4.74117 12.8022 4.65573 12.7543C4.47911 12.6565 4.25674 12.7202 4.1595 12.8961C3.01255 14.9625 2.62157 15.6666 2.47069 15.9172L2.47413 15.918C2.46151 15.96 2.46151 15.96 2.32343 16.1573C2.27652 16.224 2.22552 16.2882 2.17354 16.3513C1.35749 17.34 1.26274 18.5842 1.91984 19.6798C2.32687 20.3584 2.99958 20.8237 3.81411 20.99C4.63751 21.1574 5.50536 21.0016 6.2586 20.5497L10.8993 17.7658C11.0052 17.7023 11.08 17.6014 11.1099 17.4819C11.1397 17.3625 11.1212 17.2384 11.0576 17.1324C10.9267 16.9143 10.6425 16.8426 10.4244 16.974L8.13506 18.3475C8.01108 18.4219 7.85003 18.3819 7.77575 18.2577C7.7013 18.1338 7.74147 17.9729 7.86545 17.8984L10.1549 16.525L10.8985 16.0789C11.0044 16.0153 11.0794 15.9145 11.1092 15.7952C11.1391 15.6757 11.1205 15.5514 11.0569 15.4456C10.9259 15.2273 10.6417 15.1563 10.4237 15.2872L7.39069 17.1067C7.26639 17.1813 7.10583 17.141 7.03138 17.017C6.95693 16.893 6.99727 16.7321 7.12109 16.6577L10.8436 14.4246C10.9495 14.361 11.0243 14.2603 11.0541 14.1407C11.084 14.0213 11.0654 13.8972 11.002 13.7913C10.9385 13.6855 10.8376 13.6107 10.7181 13.5809C10.5979 13.551 10.4742 13.5696 10.3686 13.6329L9.67954 14.0463C9.67937 14.0463 9.67937 14.0464 9.67921 14.0464H9.67905L6.64618 15.866C6.52187 15.9407 6.36116 15.9004 6.28687 15.7762C6.21242 15.6523 6.25276 15.4914 6.37657 15.4169L9.40961 13.5974C9.51555 13.5338 9.59049 13.433 9.62034 13.3137C9.65314 13.1829 9.62821 13.049 9.55048 12.9369C9.41568 12.7419 9.12738 12.6901 8.90878 12.8214L4.27144 15.6034C4.16993 15.6641 4.03988 15.6493 3.95477 15.5672C3.8695 15.4848 3.85031 15.3554 3.9077 15.252L4.87199 13.5146C4.96875 13.341 4.96497 13.1265 4.86182 12.9546L4.86187 12.9545Z" fill="#103E13"/>
<path d="M22.999 19.9491C22.5157 20.7551 21.7209 21.3068 20.7607 21.5029C19.809 21.697 18.8082 21.518 17.942 20.9987L13.3013 18.2147C13.0755 18.0793 12.9157 17.8641 12.8518 17.6086C12.7883 17.3536 12.828 17.0887 12.9633 16.8631C13.0477 16.7221 13.1661 16.6109 13.3034 16.5287L13.3021 16.5279C13.0763 16.3924 12.9166 16.1773 12.8529 15.9221C12.789 15.6669 12.8287 15.4019 12.9641 15.1759C13.0514 15.0308 13.1709 14.9173 13.3074 14.8368C13.1092 14.7005 12.9666 14.5026 12.9079 14.2677C12.8439 14.0124 12.8836 13.7475 13.0191 13.5219C13.1544 13.2961 13.3697 13.1365 13.6249 13.0727C13.7046 13.0527 13.7854 13.0429 13.8654 13.0429C14.0225 13.043 14.1767 13.0829 14.3184 13.157C14.3271 12.9735 14.3817 12.7933 14.4889 12.6386C14.783 12.2144 15.372 12.097 15.8309 12.3723L19.6311 14.6518L19.1413 13.7695C18.9533 13.4327 18.9602 13.0171 19.1595 12.6848C19.2565 12.5231 19.3953 12.3888 19.5611 12.2959C19.6974 12.2204 19.8449 12.1847 19.9906 12.1847C20.3033 12.1848 20.607 12.3498 20.7687 12.6419C21.3322 13.6572 22.3955 15.572 22.4703 15.7056C22.4862 15.7288 22.5342 15.7976 22.5754 15.8562C22.6146 15.9118 22.6569 15.9649 22.7007 16.0177C23.6496 17.1679 23.764 18.6742 22.999 19.9491L22.999 19.9491ZM22.2966 16.3515C22.2445 16.2883 22.1933 16.2239 22.1468 16.1574C22.0051 15.9564 22.0015 15.9511 21.9908 15.8985C21.8252 15.6245 21.4211 14.897 20.3104 12.8959C20.213 12.7203 19.9916 12.6562 19.8153 12.7536C19.7285 12.8021 19.6588 12.8699 19.608 12.9547C19.505 13.1264 19.5011 13.3409 19.5983 13.515L20.5623 15.2519C20.6198 15.3555 20.6007 15.4847 20.5155 15.5671C20.4306 15.6496 20.3007 15.664 20.1987 15.6033L15.5614 12.8213C15.3428 12.6903 15.0546 12.7416 14.9195 12.9368C14.8418 13.0489 14.817 13.1828 14.8495 13.3135C14.8793 13.4329 14.9543 13.5335 15.0604 13.5972C15.0607 13.5973 15.0609 13.5977 15.0612 13.5978L18.0933 15.4168C18.2172 15.4913 18.2574 15.652 18.183 15.7761C18.1085 15.9 17.948 15.9405 17.8237 15.8658L14.1012 13.6328C13.9956 13.5695 13.8713 13.5508 13.7519 13.5808C13.6322 13.6106 13.5315 13.6854 13.468 13.7915C13.4044 13.8973 13.386 14.0214 13.4155 14.1408C13.4454 14.2602 13.5203 14.3611 13.6263 14.4247L14.3506 14.8591L17.3486 16.6578C17.4725 16.7323 17.5127 16.893 17.4383 17.0171C17.3638 17.1409 17.2033 17.1813 17.079 17.1068L14.0463 15.2873C13.8282 15.1561 13.5441 15.2273 13.4129 15.4457C13.3493 15.5517 13.3309 15.6758 13.3604 15.7952C13.3903 15.9146 13.4652 16.0153 13.5713 16.0791L14.3149 16.5251L16.604 17.8986C16.728 17.973 16.7682 18.1337 16.6937 18.2579C16.6193 18.3817 16.4587 18.4224 16.3344 18.3476L14.0453 16.9741C13.9397 16.9108 13.8159 16.8921 13.6958 16.9221C13.5764 16.952 13.4754 17.0268 13.4119 17.1325C13.3485 17.2385 13.3299 17.3628 13.3595 17.482C13.3893 17.6014 13.4643 17.7021 13.5704 17.7659L18.2111 20.5498C18.9641 21.0016 19.8326 21.158 20.6555 20.9901C21.4699 20.8238 22.1426 20.3586 22.5496 19.68C23.2074 18.5842 23.1128 17.3398 22.2969 16.3514L22.2966 16.3515Z" fill="#103E13"/>
</svg>
