<svg width="20" height="25" viewBox="0 0 20 25" fill="none" xmlns="http://www.w3.org/2000/svg">
<path d="M19.0586 5.45932C18.5629 4.74982 17.8714 3.91882 17.1129 3.12232C16.3543 2.32582 15.5629 1.59982 14.8871 1.07932C13.7357 0.19282 13.1771 0.0908203 12.8571 0.0908203H1.78571C0.801429 0.0908203 0 0.93232 0 1.96582V22.2158C0 23.2493 0.801429 24.0908 1.78571 24.0908H18.2143C19.1986 24.0908 20 23.2493 20 22.2158V7.59082C20 7.25482 19.9029 6.66832 19.0586 5.45932ZM16.1014 4.18432C16.7871 4.90432 17.3243 5.55232 17.7214 6.09082H14.2843V2.48332C14.7971 2.90032 15.4157 3.46432 16.1 4.18432H16.1014ZM18.5714 22.2158C18.5714 22.4198 18.4086 22.5908 18.2143 22.5908H1.78571C1.59286 22.5908 1.42857 22.4198 1.42857 22.2158V1.96582C1.42857 1.76332 1.59286 1.59082 1.78571 1.59082C1.78571 1.59082 12.8557 1.59082 12.8571 1.59082V6.84082C12.8571 7.25482 13.1771 7.59082 13.5714 7.59082H18.5714V22.2158Z" fill="#1B3854"/>
<path d="M15.25 12.5908H4.75C4.336 12.5908 4 12.2548 4 11.8408C4 11.4268 4.336 11.0908 4.75 11.0908H15.25C15.664 11.0908 16 11.4268 16 11.8408C16 12.2548 15.664 12.5908 15.25 12.5908Z" fill="#1B3854"/>
<path d="M15.25 16.0908H4.75C4.336 16.0908 4 15.7548 4 15.3408C4 14.9268 4.336 14.5908 4.75 14.5908H15.25C15.664 14.5908 16 14.9268 16 15.3408C16 15.7548 15.664 16.0908 15.25 16.0908Z" fill="#1B3854"/>
<path d="M15.25 19.5908H4.75C4.336 19.5908 4 19.2548 4 18.8408C4 18.4268 4.336 18.0908 4.75 18.0908H15.25C15.664 18.0908 16 18.4268 16 18.8408C16 19.2548 15.664 19.5908 15.25 19.5908Z" fill="#1B3854"/>
</svg>
